<mxfile host="app.diagrams.net" modified="2024-03-03T11:18:54.354Z" agent="Mozilla/5.0 (Macintosh; Intel Mac OS X 10_15_7) AppleWebKit/537.36 (KHTML, like Gecko) Chrome/122.0.0.0 Safari/537.36" etag="N4hMsHsHCjC5ZL8zNxi_" version="23.1.8" type="device">
  <diagram id="R2lEEEUBdFMjLlhIrx00" name="Page-1">
    <mxGraphModel dx="460" dy="285" grid="1" gridSize="10" guides="1" tooltips="1" connect="1" arrows="1" fold="1" page="1" pageScale="1" pageWidth="850" pageHeight="1100" math="0" shadow="0" extFonts="Permanent Marker^https://fonts.googleapis.com/css?family=Permanent+Marker">
      <root>
        <mxCell id="0" />
        <mxCell id="1" parent="0" />
        <mxCell id="L6khQDOIoBBR53wLG6lC-1" value="Turma" style="whiteSpace=wrap;html=1;aspect=fixed;" vertex="1" parent="1">
          <mxGeometry x="200" y="220" width="80" height="80" as="geometry" />
        </mxCell>
        <mxCell id="L6khQDOIoBBR53wLG6lC-3" style="edgeStyle=none;curved=1;rounded=0;orthogonalLoop=1;jettySize=auto;html=1;entryX=-0.06;entryY=0.353;entryDx=0;entryDy=0;fontSize=12;startSize=8;endSize=8;entryPerimeter=0;" edge="1" parent="1" source="L6khQDOIoBBR53wLG6lC-2" target="L6khQDOIoBBR53wLG6lC-1">
          <mxGeometry relative="1" as="geometry" />
        </mxCell>
        <mxCell id="L6khQDOIoBBR53wLG6lC-2" value="Id" style="ellipse;whiteSpace=wrap;html=1;" vertex="1" parent="1">
          <mxGeometry x="70" y="205" width="60" height="40" as="geometry" />
        </mxCell>
        <mxCell id="L6khQDOIoBBR53wLG6lC-5" value="" style="edgeStyle=none;curved=1;rounded=0;orthogonalLoop=1;jettySize=auto;html=1;fontSize=12;startSize=8;endSize=8;" edge="1" parent="1" source="L6khQDOIoBBR53wLG6lC-4" target="L6khQDOIoBBR53wLG6lC-1">
          <mxGeometry relative="1" as="geometry" />
        </mxCell>
        <mxCell id="L6khQDOIoBBR53wLG6lC-4" value="Ano letivo" style="ellipse;whiteSpace=wrap;html=1;" vertex="1" parent="1">
          <mxGeometry x="97.5" y="335" width="60" height="40" as="geometry" />
        </mxCell>
        <mxCell id="L6khQDOIoBBR53wLG6lC-7" style="edgeStyle=none;curved=1;rounded=0;orthogonalLoop=1;jettySize=auto;html=1;entryX=1;entryY=0;entryDx=0;entryDy=0;fontSize=12;startSize=8;endSize=8;" edge="1" parent="1" source="L6khQDOIoBBR53wLG6lC-6" target="L6khQDOIoBBR53wLG6lC-1">
          <mxGeometry relative="1" as="geometry" />
        </mxCell>
        <mxCell id="L6khQDOIoBBR53wLG6lC-6" value="Designation" style="ellipse;whiteSpace=wrap;html=1;" vertex="1" parent="1">
          <mxGeometry x="300" y="195" width="70" height="40" as="geometry" />
        </mxCell>
        <mxCell id="L6khQDOIoBBR53wLG6lC-10" style="edgeStyle=none;curved=1;rounded=0;orthogonalLoop=1;jettySize=auto;html=1;entryX=0;entryY=0.75;entryDx=0;entryDy=0;fontSize=12;startSize=8;endSize=8;" edge="1" parent="1" source="L6khQDOIoBBR53wLG6lC-8" target="L6khQDOIoBBR53wLG6lC-1">
          <mxGeometry relative="1" as="geometry" />
        </mxCell>
        <mxCell id="L6khQDOIoBBR53wLG6lC-8" value="nmax_alunos" style="ellipse;whiteSpace=wrap;html=1;" vertex="1" parent="1">
          <mxGeometry x="80" y="260" width="75" height="40" as="geometry" />
        </mxCell>
        <mxCell id="L6khQDOIoBBR53wLG6lC-11" value="Aluno" style="rounded=0;whiteSpace=wrap;html=1;" vertex="1" parent="1">
          <mxGeometry x="470" y="230" width="80" height="60" as="geometry" />
        </mxCell>
        <mxCell id="L6khQDOIoBBR53wLG6lC-13" style="edgeStyle=none;curved=1;rounded=0;orthogonalLoop=1;jettySize=auto;html=1;entryX=0.5;entryY=1;entryDx=0;entryDy=0;fontSize=12;startSize=8;endSize=8;" edge="1" parent="1" source="L6khQDOIoBBR53wLG6lC-12" target="L6khQDOIoBBR53wLG6lC-11">
          <mxGeometry relative="1" as="geometry" />
        </mxCell>
        <mxCell id="L6khQDOIoBBR53wLG6lC-12" value="ncartao_cidadao" style="ellipse;whiteSpace=wrap;html=1;" vertex="1" parent="1">
          <mxGeometry x="460" y="330" width="100" height="40" as="geometry" />
        </mxCell>
        <mxCell id="L6khQDOIoBBR53wLG6lC-15" style="edgeStyle=none;curved=1;rounded=0;orthogonalLoop=1;jettySize=auto;html=1;entryX=0;entryY=0;entryDx=0;entryDy=0;fontSize=12;startSize=8;endSize=8;" edge="1" parent="1" source="L6khQDOIoBBR53wLG6lC-14" target="L6khQDOIoBBR53wLG6lC-11">
          <mxGeometry relative="1" as="geometry" />
        </mxCell>
        <mxCell id="L6khQDOIoBBR53wLG6lC-14" value="nome" style="ellipse;whiteSpace=wrap;html=1;" vertex="1" parent="1">
          <mxGeometry x="390" y="170" width="100" height="40" as="geometry" />
        </mxCell>
        <mxCell id="L6khQDOIoBBR53wLG6lC-17" style="edgeStyle=none;curved=1;rounded=0;orthogonalLoop=1;jettySize=auto;html=1;entryX=1;entryY=1;entryDx=0;entryDy=0;fontSize=12;startSize=8;endSize=8;" edge="1" parent="1" source="L6khQDOIoBBR53wLG6lC-16" target="L6khQDOIoBBR53wLG6lC-11">
          <mxGeometry relative="1" as="geometry" />
        </mxCell>
        <mxCell id="L6khQDOIoBBR53wLG6lC-16" value="morada" style="ellipse;whiteSpace=wrap;html=1;" vertex="1" parent="1">
          <mxGeometry x="580" y="290" width="100" height="40" as="geometry" />
        </mxCell>
        <mxCell id="L6khQDOIoBBR53wLG6lC-18" value="data_nascimento" style="ellipse;whiteSpace=wrap;html=1;" vertex="1" parent="1">
          <mxGeometry x="600" y="210" width="100" height="40" as="geometry" />
        </mxCell>
        <mxCell id="L6khQDOIoBBR53wLG6lC-19" style="edgeStyle=none;curved=1;rounded=0;orthogonalLoop=1;jettySize=auto;html=1;entryX=1.027;entryY=0.348;entryDx=0;entryDy=0;entryPerimeter=0;fontSize=12;startSize=8;endSize=8;" edge="1" parent="1" source="L6khQDOIoBBR53wLG6lC-18" target="L6khQDOIoBBR53wLG6lC-11">
          <mxGeometry relative="1" as="geometry" />
        </mxCell>
        <mxCell id="L6khQDOIoBBR53wLG6lC-21" style="edgeStyle=none;curved=1;rounded=0;orthogonalLoop=1;jettySize=auto;html=1;entryX=0;entryY=0.5;entryDx=0;entryDy=0;fontSize=12;startSize=8;endSize=8;" edge="1" parent="1" source="L6khQDOIoBBR53wLG6lC-20" target="L6khQDOIoBBR53wLG6lC-11">
          <mxGeometry relative="1" as="geometry" />
        </mxCell>
        <mxCell id="L6khQDOIoBBR53wLG6lC-20" value="&lt;font style=&quot;font-size: 8px;&quot;&gt;pertence&lt;/font&gt;" style="rhombus;whiteSpace=wrap;html=1;" vertex="1" parent="1">
          <mxGeometry x="375" y="235" width="50" height="50" as="geometry" />
        </mxCell>
        <mxCell id="L6khQDOIoBBR53wLG6lC-22" value="" style="shape=link;html=1;rounded=0;fontSize=12;startSize=8;endSize=8;entryX=0;entryY=0.5;entryDx=0;entryDy=0;" edge="1" parent="1" target="L6khQDOIoBBR53wLG6lC-20">
          <mxGeometry width="100" relative="1" as="geometry">
            <mxPoint x="280" y="259.65999999999997" as="sourcePoint" />
            <mxPoint x="380" y="259.65999999999997" as="targetPoint" />
          </mxGeometry>
        </mxCell>
        <mxCell id="L6khQDOIoBBR53wLG6lC-23" value="1" style="text;html=1;align=center;verticalAlign=middle;whiteSpace=wrap;rounded=0;fontSize=16;" vertex="1" parent="1">
          <mxGeometry x="270" y="230" width="40" height="20" as="geometry" />
        </mxCell>
        <mxCell id="L6khQDOIoBBR53wLG6lC-24" value="N" style="text;html=1;align=center;verticalAlign=middle;whiteSpace=wrap;rounded=0;fontSize=16;" vertex="1" parent="1">
          <mxGeometry x="440" y="235" width="20" height="10" as="geometry" />
        </mxCell>
        <mxCell id="L6khQDOIoBBR53wLG6lC-25" value="Atividades" style="rounded=0;whiteSpace=wrap;html=1;" vertex="1" parent="1">
          <mxGeometry x="195" y="440" width="90" height="50" as="geometry" />
        </mxCell>
        <mxCell id="L6khQDOIoBBR53wLG6lC-27" style="edgeStyle=none;curved=1;rounded=0;orthogonalLoop=1;jettySize=auto;html=1;entryX=0;entryY=0.5;entryDx=0;entryDy=0;fontSize=12;startSize=8;endSize=8;" edge="1" parent="1" source="L6khQDOIoBBR53wLG6lC-26" target="L6khQDOIoBBR53wLG6lC-25">
          <mxGeometry relative="1" as="geometry" />
        </mxCell>
        <mxCell id="L6khQDOIoBBR53wLG6lC-26" value="Id" style="ellipse;whiteSpace=wrap;html=1;" vertex="1" parent="1">
          <mxGeometry x="90" y="445" width="75" height="40" as="geometry" />
        </mxCell>
        <mxCell id="L6khQDOIoBBR53wLG6lC-31" style="edgeStyle=none;curved=1;rounded=0;orthogonalLoop=1;jettySize=auto;html=1;fontSize=12;startSize=8;endSize=8;" edge="1" parent="1" source="L6khQDOIoBBR53wLG6lC-28">
          <mxGeometry relative="1" as="geometry">
            <mxPoint x="290" y="460" as="targetPoint" />
          </mxGeometry>
        </mxCell>
        <mxCell id="L6khQDOIoBBR53wLG6lC-28" value="designation" style="ellipse;whiteSpace=wrap;html=1;" vertex="1" parent="1">
          <mxGeometry x="320" y="440" width="75" height="40" as="geometry" />
        </mxCell>
        <mxCell id="L6khQDOIoBBR53wLG6lC-30" style="edgeStyle=none;curved=1;rounded=0;orthogonalLoop=1;jettySize=auto;html=1;entryX=0.5;entryY=1;entryDx=0;entryDy=0;fontSize=12;startSize=8;endSize=8;" edge="1" parent="1" source="L6khQDOIoBBR53wLG6lC-29" target="L6khQDOIoBBR53wLG6lC-25">
          <mxGeometry relative="1" as="geometry" />
        </mxCell>
        <mxCell id="L6khQDOIoBBR53wLG6lC-29" value="custo_financeiro" style="ellipse;whiteSpace=wrap;html=1;" vertex="1" parent="1">
          <mxGeometry x="192.5" y="530" width="95" height="40" as="geometry" />
        </mxCell>
        <mxCell id="L6khQDOIoBBR53wLG6lC-34" style="edgeStyle=none;curved=1;rounded=0;orthogonalLoop=1;jettySize=auto;html=1;entryX=0.5;entryY=1;entryDx=0;entryDy=0;fontSize=12;startSize=8;endSize=8;" edge="1" parent="1" source="L6khQDOIoBBR53wLG6lC-32" target="L6khQDOIoBBR53wLG6lC-1">
          <mxGeometry relative="1" as="geometry" />
        </mxCell>
        <mxCell id="L6khQDOIoBBR53wLG6lC-32" value="&lt;font style=&quot;font-size: 10px;&quot;&gt;realiza&lt;/font&gt;" style="rhombus;whiteSpace=wrap;html=1;" vertex="1" parent="1">
          <mxGeometry x="215" y="350" width="50" height="50" as="geometry" />
        </mxCell>
        <mxCell id="L6khQDOIoBBR53wLG6lC-33" value="" style="shape=link;html=1;rounded=0;fontSize=12;startSize=8;endSize=8;entryX=0.5;entryY=1;entryDx=0;entryDy=0;" edge="1" parent="1" target="L6khQDOIoBBR53wLG6lC-32">
          <mxGeometry width="100" relative="1" as="geometry">
            <mxPoint x="240" y="439.67" as="sourcePoint" />
            <mxPoint x="340" y="439.67" as="targetPoint" />
          </mxGeometry>
        </mxCell>
        <mxCell id="L6khQDOIoBBR53wLG6lC-35" value="N" style="text;html=1;align=center;verticalAlign=middle;whiteSpace=wrap;rounded=0;fontSize=16;" vertex="1" parent="1">
          <mxGeometry x="260" y="310" as="geometry" />
        </mxCell>
        <mxCell id="L6khQDOIoBBR53wLG6lC-36" value="M" style="text;html=1;align=center;verticalAlign=middle;whiteSpace=wrap;rounded=0;fontSize=16;" vertex="1" parent="1">
          <mxGeometry x="240" y="420" width="40" height="20" as="geometry" />
        </mxCell>
        <mxCell id="L6khQDOIoBBR53wLG6lC-38" style="edgeStyle=none;curved=1;rounded=0;orthogonalLoop=1;jettySize=auto;html=1;entryX=0;entryY=1;entryDx=0;entryDy=0;fontSize=12;startSize=8;endSize=8;" edge="1" parent="1" source="L6khQDOIoBBR53wLG6lC-37" target="L6khQDOIoBBR53wLG6lC-11">
          <mxGeometry relative="1" as="geometry" />
        </mxCell>
        <mxCell id="L6khQDOIoBBR53wLG6lC-39" style="edgeStyle=none;curved=1;rounded=0;orthogonalLoop=1;jettySize=auto;html=1;fontSize=12;startSize=8;endSize=8;" edge="1" parent="1" source="L6khQDOIoBBR53wLG6lC-37">
          <mxGeometry relative="1" as="geometry">
            <mxPoint x="290" y="440" as="targetPoint" />
          </mxGeometry>
        </mxCell>
        <mxCell id="L6khQDOIoBBR53wLG6lC-37" value="&lt;font style=&quot;font-size: 8px;&quot;&gt;participa&lt;/font&gt;" style="rhombus;whiteSpace=wrap;html=1;" vertex="1" parent="1">
          <mxGeometry x="370" y="330" width="50" height="50" as="geometry" />
        </mxCell>
        <mxCell id="L6khQDOIoBBR53wLG6lC-40" value="Professor" style="rounded=0;whiteSpace=wrap;html=1;" vertex="1" parent="1">
          <mxGeometry x="200" y="50" width="80" height="40" as="geometry" />
        </mxCell>
        <mxCell id="L6khQDOIoBBR53wLG6lC-43" style="edgeStyle=none;curved=1;rounded=0;orthogonalLoop=1;jettySize=auto;html=1;entryX=0.5;entryY=1;entryDx=0;entryDy=0;fontSize=12;startSize=8;endSize=8;" edge="1" parent="1" source="L6khQDOIoBBR53wLG6lC-41" target="L6khQDOIoBBR53wLG6lC-40">
          <mxGeometry relative="1" as="geometry" />
        </mxCell>
        <mxCell id="L6khQDOIoBBR53wLG6lC-41" value="&lt;span style=&quot;font-size: 8px;&quot;&gt;tem&lt;/span&gt;" style="rhombus;whiteSpace=wrap;html=1;" vertex="1" parent="1">
          <mxGeometry x="215" y="120" width="50" height="50" as="geometry" />
        </mxCell>
        <mxCell id="L6khQDOIoBBR53wLG6lC-42" value="" style="shape=link;html=1;rounded=0;fontSize=12;startSize=8;endSize=8;entryX=0.5;entryY=1;entryDx=0;entryDy=0;width=3.793103448275863;exitX=0.5;exitY=0;exitDx=0;exitDy=0;" edge="1" parent="1" source="L6khQDOIoBBR53wLG6lC-1">
          <mxGeometry width="100" relative="1" as="geometry">
            <mxPoint x="240" y="210.00000000000003" as="sourcePoint" />
            <mxPoint x="240" y="170.33" as="targetPoint" />
          </mxGeometry>
        </mxCell>
        <mxCell id="L6khQDOIoBBR53wLG6lC-44" value="&lt;font style=&quot;font-size: 9px;&quot;&gt;n_funcionario&lt;/font&gt;" style="ellipse;whiteSpace=wrap;html=1;" vertex="1" parent="1">
          <mxGeometry x="200" y="10" width="80" height="30" as="geometry" />
        </mxCell>
        <mxCell id="L6khQDOIoBBR53wLG6lC-45" style="edgeStyle=none;curved=1;rounded=0;orthogonalLoop=1;jettySize=auto;html=1;entryX=0.498;entryY=-0.041;entryDx=0;entryDy=0;entryPerimeter=0;fontSize=12;startSize=8;endSize=8;endArrow=none;endFill=0;" edge="1" parent="1" source="L6khQDOIoBBR53wLG6lC-44" target="L6khQDOIoBBR53wLG6lC-40">
          <mxGeometry relative="1" as="geometry" />
        </mxCell>
      </root>
    </mxGraphModel>
  </diagram>
</mxfile>
